<mxfile host="app.diagrams.net" modified="2023-08-22T07:48:09.189Z" agent="Mozilla/5.0 (Windows NT 10.0; Win64; x64) AppleWebKit/537.36 (KHTML, like Gecko) Chrome/115.0.0.0 Safari/537.36" version="21.6.8" etag="tQCdab1IFg07roLNG8dI" type="github">
  <diagram name="หน้า-1" id="8G6BnDKxPJGY0PT8TL4-">
    <mxGraphModel>
      <root>
        <mxCell id="0" />
        <mxCell id="1" parent="0" />
      </root>
    </mxGraphModel>
  </diagram>
</mxfile>
